<svg id="Layer_1" fill="red" enable-background="new 0 0 48 48" viewBox="0 0 48 48" xmlns="http://www.w3.org/2000/svg"><path d="m45.8964844 18.6435547c-.2382813-.7109375-.8535156-1.2294922-1.5947266-1.3427734l-12.7636719-1.9492188-5.727539-12.2011719c-.3291016-.7021484-1.0351563-1.1503906-1.8105469-1.1503906s-1.4814453.4482422-1.8105469 1.1503906l-5.7275391 12.2011719-12.7636718 1.9492188c-.7412109.1132813-1.3564453.6318359-1.5947266 1.3427734s-.0585938 1.4951172.4648438 2.03125l9.2949219 9.5273438-2.1972657 13.4755859c-.1240234.7558594.1953125 1.5166016.8222656 1.9570313.6259766.4404297 1.4501953.4863281 2.1191406.1152344l11.3925782-6.2978517 11.3925781 6.2978516c.3027344.1669922.6357422.25.9677734.25.4042969 0 .8076172-.1230469 1.1513672-.3652344.6269531-.4404297.9462891-1.2011719.8222656-1.9570313l-2.1972656-13.4755859 9.2949219-9.5273438c.5234375-.5361327.703125-1.3203124.4648438-2.0312499zm-13.328125 9.4882812c-.4433594.4541016-.6445313 1.0917969-.5419922 1.71875l1.6972656 10.40625-8.7558594-4.8398438c-.3007813-.1669922-.6347656-.25-.9677734-.25s-.6669922.0830078-.9677734.25l-8.7558594 4.8398438 1.6972656-10.40625c.1025391-.6269531-.0986328-1.2646484-.5419922-1.71875l-7.2822266-7.4638672 9.9716797-1.5234375c.6591797-.1015625 1.2255859-.5244141 1.5087891-1.1279297l4.3701172-9.3095702 4.3701172 9.3095703c.2832031.6035156.8496094 1.0263672 1.5087891 1.1279297l9.9716797 1.5234375z"/></svg>