<svg id="Layer_1" height="512" viewBox="0 0 64 64" width="512" xmlns="http://www.w3.org/2000/svg" data-name="Layer 1"><path d="m34.721 61a10.832 10.832 0 0 0 4.532-.987l9.821-4.49a11 11 0 0 0 4-3.114l8.269-10.316a3.005 3.005 0 0 0 -.352-4.135l-.234-.208a2.984 2.984 0 0 0 -3.964.008l-9.33 8.323a8.925 8.925 0 0 1 -2.614 1.624l-7.129 2.866a.982.982 0 0 1 -1.064-.22l-1.013-1.02 6.357-2.688a1.074 1.074 0 0 0 .122-.062 6.645 6.645 0 0 0 2.317-2.33 3 3 0 0 0 -3.083-4.5l-10.714 1.9a10.875 10.875 0 0 0 -3.9 1.508l-3.9 2.453a8.9 8.9 0 0 1 -4.742 1.372h-6.1v-.984a1 1 0 0 0 -1-1h-8a1 1 0 0 0 -1 1v15a1 1 0 0 0 1 1h8a1 1 0 0 0 1-1v-1.1l7.158-.72a8.865 8.865 0 0 1 3.348.3l3.8 1.092a10.92 10.92 0 0 0 3.01.424zm-24.721-1h-6v-13h6zm13.059-2.438a10.924 10.924 0 0 0 -4.1-.369l-6.958.7v-8.909h6.1a10.89 10.89 0 0 0 5.799-1.675l3.9-2.453a8.869 8.869 0 0 1 3.187-1.232l10.715-1.9a.974.974 0 0 1 .98.412 1 1 0 0 1 .034 1.1 4.651 4.651 0 0 1 -1.566 1.6l-7.65 3.229a1 1 0 0 0 -.319 1.626l2.057 2.07a2.978 2.978 0 0 0 3.229.666l7.124-2.867a10.921 10.921 0 0 0 3.2-1.987l9.33-8.323a.982.982 0 0 1 1.306 0l.234.207a1.008 1.008 0 0 1 .117 1.387l-8.268 10.314a9 9 0 0 1 -3.267 2.542l-9.822 4.49a8.837 8.837 0 0 1 -3.7.806h-5.409a8.942 8.942 0 0 1 -2.458-.346z"/><path d="m6 56h2v2h-2z"/><path d="m15 10v26a1 1 0 0 0 1 1h32a1 1 0 0 0 1-1v-26a1 1 0 0 0 -1-1h-32a1 1 0 0 0 -1 1zm2 1h30v24h-30z"/><path d="m40.151 20.123-5-.764-2.245-4.784a1 1 0 0 0 -1.81 0l-2.246 4.784-5 .764a1 1 0 0 0 -.565 1.687l3.648 3.738-.864 5.291a1 1 0 0 0 1.471 1.036l4.46-2.465 4.461 2.465a1 1 0 0 0 1.471-1.036l-.864-5.291 3.648-3.738a1 1 0 0 0 -.565-1.687zm-4.867 4.39a1 1 0 0 0 -.271.859l.613 3.756-3.143-1.736a1 1 0 0 0 -.966 0l-3.143 1.736.613-3.756a1 1 0 0 0 -.271-.859l-2.641-2.707 3.605-.55a1 1 0 0 0 .754-.564l1.566-3.338 1.566 3.338a1 1 0 0 0 .754.564l3.6.55z"/><path d="m31 2h2v4h-2z"/><path d="m53 22h4v2h-4z"/><path d="m7 22h4v2h-4z"/><path d="m10 4h2v4h-2z" transform="matrix(.707 -.707 .707 .707 -1.021 9.536)"/><path d="m51 5h4v2h-4z" transform="matrix(.707 -.707 .707 .707 11.281 39.234)"/></svg>