<?xml version="1.0" encoding="iso-8859-1"?>
<!-- Generator: Adobe Illustrator 19.0.0, SVG Export Plug-In . SVG Version: 6.00 Build 0)  -->
<svg xmlns="http://www.w3.org/2000/svg" xmlns:xlink="http://www.w3.org/1999/xlink" version="1.1" id="Layer_1" x="0px" y="0px" viewBox="0 0 512 512" style="enable-background:new 0 0 512 512;" xml:space="preserve" width="512" height="512">
<g>
	<path d="M502,402h-90c-5.523,0-10,4.477-10,10v35h-86c-63.593,0-121.705-23.88-165.872-63.128c0,0,102.58-41.092,102.982-41.253   c1.234-0.494,2.387-1.263,3.327-2.203c0,0,243.848-243.848,243.848-243.848c15.596-15.596,15.595-40.973,0-56.568L472,11.715   c-15.596-15.595-40.972-15.595-56.569,0c0,0-243.761,243.761-243.848,243.848c-0.957,0.957-1.725,2.125-2.23,3.399l-40.952,103.091   C89.586,317.989,65,260.201,65,197c0-1.556,0-87,0-87h35c5.523,0,10-4.477,10-10V10c0-5.523-4.477-10-10-10H10   C4.477,0,0,4.477,0,10v90c0,5.523,4.477,10,10,10h35v292H30c-16.542,0-30,13.458-30,30v50c0,16.542,13.458,30,30,30h50   c16.542,0,30-13.458,30-30v-15h292v35c0,5.523,4.477,10,10,10h90c5.523,0,10-4.477,10-10v-90C512,406.477,507.523,402,502,402z    M249.365,319.203l-21.213-21.213l166.066-166.066l21.213,21.213L249.365,319.203z M457.857,25.858l28.285,28.285   c7.798,7.797,7.798,20.486,0,28.284l-56.569-56.569C437.372,18.06,450.06,18.06,457.857,25.858z M387.151,68.281   c1.89,1.89,4.399,2.929,7.069,2.929c2.67,0,5.18-1.04,7.07-2.93c3.9-3.89,3.9-10.239,0.001-14.139L415.431,40L472,96.569   l-14.141,14.141c-1.89-1.89-4.4-2.93-7.069-2.93c-2.68,0-5.19,1.04-7.08,2.93c-3.89,3.9-3.89,10.24,0,14.14l0.005,0.005   l-14.141,14.141l-56.569-56.569L387.151,68.281z M358.863,96.569l21.213,21.213L214.01,283.847l-21.213-21.213L358.863,96.569z    M182.359,280.482l49.484,49.484l-29.279,12.529l-32.1-31.888L182.359,280.482z M162.422,330.809l19.78,19.649l-32.51,12.213   L162.422,330.809z M20,90V20h70v70H20z M90,482c0,5.514-4.486,10-10,10H30c-5.514,0-10-4.486-10-10v-50c0-5.514,4.486-10,10-10h50   c5.514,0,10,4.486,10,10V482z M110,447v-15c0-16.542-13.458-30-30-30H65V296.837c13.402,33.712,33.656,64.657,60.081,91.082   c25.771,25.771,55.838,45.68,88.581,59.081H110z M492,492h-70v-70h70V492z"/>
	<path d="M429.57,82.43c-1.89-1.89-4.4-2.93-7.07-2.93s-5.18,1.04-7.07,2.93c-1.89,1.88-2.93,4.4-2.93,7.07s1.04,5.18,2.93,7.07   c1.89,1.89,4.4,2.93,7.07,2.93s5.18-1.04,7.07-2.93s2.93-4.4,2.93-7.07S431.46,84.31,429.57,82.43z"/>
</g>















</svg>
