<svg id="Layer_1" height="512" viewBox="0 0 100 100" width="512" xmlns="http://www.w3.org/2000/svg"><path d="m45.96 50.58c-.83 0-1.5.67-1.5 1.5 0 3.64-2.96 6.6-6.6 6.6h-1.82c-3.64 0-6.6-2.96-6.6-6.6v-7.42c0-8.12-6.61-14.73-14.73-14.73h-3.58c-.83 0-1.5.67-1.5 1.5s.67 1.5 1.5 1.5h3.58c6.47 0 11.73 5.26 11.73 11.73v7.42c0 5.29 4.31 9.6 9.6 9.6h1.82c5.29 0 9.6-4.31 9.6-9.6 0-.83-.67-1.5-1.5-1.5z"/><path d="m92.52 8.55c-1.72-1.72-4.54-1.72-6.28.01l-6.12 6.13h-69.14c-4.01 0-7.27 3.26-7.27 7.27v48.56c0 4.01 3.26 7.27 7.27 7.27h28.12c-.03.29-.06.61-.12.97-.39 2.59-1.62 6.72-5.52 9.51-.85.6-1.82 1.15-2.93 1.59-.33.13-.6.38-.76.68s-.23.65-.16 1.01c.14.71.75 1.21 1.47 1.21h16.07 16.07c.72 0 1.34-.51 1.47-1.21.07-.35.01-.71-.16-1.01-.16-.3-.42-.54-.76-.68-1.11-.45-2.09-.99-2.93-1.59-3.9-2.79-5.14-6.91-5.52-9.51-.05-.36-.09-.68-.12-.97h28.12c4.01 0 7.27-3.26 7.27-7.27v-47.56l5.02-5.02c.84-.84 1.31-1.96 1.3-3.16 0-1.19-.47-2.3-1.3-3.13zm-38.65 38.55 3.21 3.21-3.94.72zm-1.65 30.68c.05.53.13 1.17.26 1.89.52 2.86 1.88 6.95 5.43 10.07h-10.76-10.75c3.55-3.12 4.91-7.2 5.43-10.07.13-.72.21-1.36.26-1.89zm35.38-7.27c0 2.35-1.92 4.27-4.27 4.27h-29.6-.01-42.74c-2.35 0-4.27-1.92-4.27-4.27v-48.56c0-2.35 1.92-4.27 4.27-4.27h66.14l-25.25 25.26c-.01.01-.01.01-.02.01-.02.02-.03.06-.06.08-.09.11-.17.22-.23.35-.03.07-.05.14-.07.21-.02.05-.04.1-.05.15l-1.63 8.89c-.09.48.07.98.42 1.33.08.08.17.15.26.21.03.02.06.03.09.05.07.04.14.07.22.1.03.01.07.02.1.03.08.02.15.03.23.04.03 0 .07.01.1.01.02 0 .04.01.06.01.09 0 .18-.01.27-.02l8.89-1.63c.06-.01.11-.04.17-.06s.12-.03.18-.06c.15-.07.29-.16.41-.28.01-.01.02-.01.02-.02l26.37-26.38zm5.9-54.69-33.33 33.33-5.14-5.14 26.77-26.77c.01-.01.01-.02.02-.03l6.53-6.53c.57-.56 1.48-.57 2.04-.02l3.11 3.11c.27.27.42.63.42 1.01 0 .4-.15.77-.42 1.04z"/></svg>