<svg id="line" viewBox="0 0 32 32" xmlns="http://www.w3.org/2000/svg"><path d="m5.6753 16.2529c-.1694 0-.3394-.0571-.4795-.1738-.3184-.2651-.3613-.7383-.0962-1.0562l4.1475-4.9766c.1348-.1621.3315-.2598.542-.269.2202-.0029.4155.0698.5645.2188l3.2183 3.2183 3.6401-5.1226c.2402-.3374.7085-.416 1.0459-.1768.3374.2397.4165.708.1768 1.0459l-4.1543 5.8457c-.1279.1797-.3286.2944-.5483.313-.2188.0176-.437-.061-.5933-.2173l-3.2651-3.2651-3.6216 4.3457c-.1484.1782-.3618.27-.5767.27z"/><path d="m18.3525 12.0547c-.3525 0-.667-.25-.7358-.6094l-.3896-2.0415-2.0415.3896c-.4058.0723-.7998-.189-.8774-.5962-.0776-.4067.1895-.7998.5962-.8774l2.7783-.5303c.4009-.0752.7993.189.8774.5962l.5303 2.7783c.0776.4067-.1895.7998-.5962.8774-.0474.0088-.0947.0132-.1416.0132z"/><path d="m12.0146 23.7593c-3.0088 0-6.0181-1.1455-8.3086-3.436-4.581-4.5816-4.581-12.0357.0001-16.6172 4.581-4.5811 12.0361-4.5811 16.6171 0 4.5815 4.5815 4.5815 12.0356 0 16.6172-2.2905 2.2905-5.2998 3.436-8.3086 3.436zm0-21.9898c-2.625 0-5.2495.999-7.248 2.9971-3.9961 3.9966-3.9961 10.4995 0 14.4961 3.9971 3.9966 10.5 3.9976 14.4961 0 3.9961-3.9966 3.9956-10.4995 0-14.4961-1.9985-1.998-4.623-2.9971-7.248-2.9971z"/><path d="m22.6211 23.3711c-.1919 0-.3838-.0732-.5303-.2197l-2.8281-2.8281c-.293-.293-.293-.7676 0-1.0605s.7676-.293 1.0605 0l2.8281 2.8281c.293.293.293.7676 0 1.0605-.1465.1465-.3384.2197-.5303.2197z"/><path d="m28.9854 31.7354c-.7349 0-1.4253-.2861-1.9443-.8057l-6.3643-6.3638c-.1406-.1406-.2197-.3315-.2197-.5303s.0791-.3896.2197-.5303l2.8286-2.8286c.2812-.2812.7793-.2812 1.0605 0l6.3638 6.3643c.5195.519.8057 1.2095.8057 1.9443 0 .7344-.2861 1.4248-.8057 1.9443-.5195.5195-1.21.8057-1.9443.8057zm-6.7178-7.6997 5.834 5.8335c.4727.4727 1.2949.4727 1.7676 0 .2363-.2363.3662-.5498.3662-.8838s-.1299-.6475-.3662-.8838l-5.8335-5.834z"/></svg>