<svg height="512" viewBox="0 0 24 24" width="512" xmlns="http://www.w3.org/2000/svg"><g id="Layer_4" data-name="Layer 4"><path d="m16 3.5a4.1929 4.1929 0 0 0 -.5.03v-.53a2.5009 2.5009 0 0 0 -2.5-2.5h-10a2.5009 2.5009 0 0 0 -2.5 2.5v18a2.5009 2.5009 0 0 0 2.5 2.5h10a2.5009 2.5009 0 0 0 2.5-2.5v-2.53a4.1929 4.1929 0 0 0 .5.03 7.5 7.5 0 0 0 0-15zm-5.81-2-.5 1h-3.38l-.5-1zm4.31 19.5a1.498 1.498 0 0 1 -1.5 1.5h-10a1.498 1.498 0 0 1 -1.5-1.5v-1.5h13zm0-2.5h-13v-15.5a1.498 1.498 0 0 1 1.5-1.5h1.69l.86 1.72a.5118.5118 0 0 0 .45.28h4a.5118.5118 0 0 0 .45-.28l.86-1.72h1.69a1.498 1.498 0 0 1 1.5 1.5v.65a7.5019 7.5019 0 0 0 0 14.7zm1.5-1c-.17 0-.34-.01-.5-.02a6.5012 6.5012 0 0 1 0-12.96c.16-.01.33-.02.5-.02a6.5 6.5 0 0 1 0 13z"/><path d="m17.8682 7.2241a3.0187 3.0187 0 0 0 -2.5723-.5718 2.9674 2.9674 0 0 0 -2.2183 2.23 3.0029 3.0029 0 0 0 1.0024 2.9849.89.89 0 0 1 .3486.6577v.9751a.5.5 0 0 0 .5.5h2.1426a.5.5 0 0 0 .5-.5v-.9888a.8563.8563 0 0 1 .3379-.6352 2.99 2.99 0 0 0 -.041-4.6519zm-.5948 3.88a1.8394 1.8394 0 0 0 -.7021 1.4067v.4892h-1.1426v-.4751a1.85 1.85 0 0 0 -.709-1.4263 1.9941 1.9941 0 0 1 .8-3.4716 2.0272 2.0272 0 0 1 1.7256.3789 1.9908 1.9908 0 0 1 .0283 3.0986z"/><path d="m16.7144 14.4287h-1.4288a.5.5 0 0 0 0 1h1.4288a.5.5 0 0 0 0-1z"/></g></svg>