<svg id="Capa_1" enable-background="new 0 0 307 307" height="512" viewBox="0 0 307 307" width="512" xmlns="http://www.w3.org/2000/svg"><g><path d="m217.2 307h-127.4c-15.255-.02-27.616-12.385-27.63-27.64v-251.72c.014-15.255 12.375-27.62 27.63-27.64h127.4c15.255.02 27.616 12.385 27.63 27.64v251.72c-.014 15.255-12.375 27.62-27.63 27.64zm-127.4-297c-9.735.014-17.622 7.905-17.63 17.64v251.72c.008 9.735 7.895 17.626 17.63 17.64h127.4c9.735-.014 17.621-7.905 17.63-17.64v-251.72c-.009-9.735-7.895-17.626-17.63-17.64z"/><path d="m185.43 28.17h-63.86c-9.895-.014-17.912-8.035-17.92-17.93v-5.24c0-2.761 2.239-5 5-5h89.7c2.761 0 5 2.239 5 5v5.24c-.008 9.895-8.025 17.916-17.92 17.93zm-71.78-18.17v.24c.002 4.375 3.545 7.923 7.92 7.93h63.86c4.375-.007 7.918-3.555 7.92-7.93v-.24z"/><path d="m194.796 286.685h-82.592c-2.761 0-5-2.239-5-5s2.239-5 5-5h82.592c2.761 0 5 2.239 5 5s-2.239 5-5 5z"/><path d="m243.981 84.611c-2.761 0-5-2.239-5-5v-24.296c0-2.761 2.239-5 5-5s5 2.239 5 5v24.296c0 2.762-2.238 5-5 5z"/><path d="m63.019 104.611c-2.761 0-5-2.239-5-5v-24.296c0-2.761 2.239-5 5-5s5 2.239 5 5v24.296c0 2.762-2.239 5-5 5z"/><path d="m63.019 144.611c-2.761 0-5-2.239-5-5v-24.296c0-2.761 2.239-5 5-5s5 2.239 5 5v24.296c0 2.762-2.239 5-5 5z"/></g></svg>