<svg id="line" height="512" viewBox="0 0 64 64" width="512" xmlns="http://www.w3.org/2000/svg"><path d="m60 19.80859c-.48613-18.93759-26.94045-21.69904-31.26211-3.26978a15.72768 15.72768 0 0 0 -12.18967 12.17561 15.81315 15.81315 0 1 0 18.73718 18.73816 15.72844 15.72844 0 0 0 12.176-12.191 15.73437 15.73437 0 0 0 12.5386-15.45299zm-40.18555 38.19141a13.83027 13.83027 0 0 1 -13.81445-13.81445c.759-18.32673 26.87269-18.32139 27.62893.0001a13.83028 13.83028 0 0 1 -13.81448 13.81435zm15.75623-12.66528a15.81968 15.81968 0 0 0 -15.75623-16.96359c-.38794 0-.76825.0306-1.14923.05819a13.79554 13.79554 0 0 1 13.33778-10.24081c16.13427.37365 19.02093 22.69149 3.56768 27.14621zm12.19543-12.18695a15.8372 15.8372 0 0 0 -15.7632-16.95925c-.3975 0-.77635.01906-1.15013.04518a13.74921 13.74921 0 0 1 13.33863-10.2337c16.11628.32968 19.00651 22.748 3.5747 27.14777z"/></svg>