<svg height="512" viewBox="0 0 64 64" width="512" xmlns="http://www.w3.org/2000/svg"><g id="Layer_10" data-name="Layer 10"><path d="m14 60h-2a3 3 0 0 1 -3-3v-20a5.006 5.006 0 0 0 -5-5h-1a1 1 0 0 0 0 2h1a3 3 0 0 1 3 3v20a5.006 5.006 0 0 0 5 5h2a1 1 0 0 0 0-2z"/><path d="m61.383 1.356a1 1 0 0 0 -1.09.216l-16.1 16.093-.707-.707a1 1 0 0 0 -1.414 0l-5.657 5.657a1 1 0 0 0 0 1.414l.707.707-2.122 2.122a5 5 0 0 1 -7.071 0 1 1 0 0 0 -1.637.339l-12.021 30.403a1 1 0 0 0 1.637 1.075l15.767-15.764a1 1 0 0 0 .259-.967 3.019 3.019 0 0 1 1.386-3.374 2.97 2.97 0 0 1 3.035.013 3 3 0 0 1 -2.3 5.484.994.994 0 0 0 -.968.258l-15.765 15.767a1 1 0 0 0 1.078 1.637l30.4-12.021a1 1 0 0 0 .34-1.637 5 5 0 0 1 0-7.071l2.121-2.121.708.707a1 1 0 0 0 1.414 0l5.657-5.657a1 1 0 0 0 0-1.414l-.706-.707 3.371-3.371a1 1 0 0 0 .295-.707v-25.45a1 1 0 0 0 -.617-.924zm-13.655 38.23a7.012 7.012 0 0 0 -.923 8.761l-24.659 9.753 11.978-11.981a5 5 0 1 0 -4.243-4.242l-11.981 11.977 9.752-24.654a7.007 7.007 0 0 0 8.762-.924l2.121-2.122 11.314 11.311zm4.95-2.121-14.143-14.143 4.243-4.242 14.143 14.142zm7.322-10.149-3.078 3.078-11.316-11.315 14.394-14.386z"/></g></svg>