<svg id="Layer_1" height="512" viewBox="0 0 512 512" width="512" xmlns="http://www.w3.org/2000/svg" data-name="Layer 1"><path d="m310.954 326.662a14.062 14.062 0 0 0 -19.887 0l-51.04 51.04a2.826 2.826 0 0 1 -3.58.333 389.483 389.483 0 0 1 -102.415-102.415 2.826 2.826 0 0 1 .333-3.581l51.035-51.032a14.063 14.063 0 0 0 .006-19.894l-91.379-91.377a14.078 14.078 0 0 0 -19.888 0l-57.856 57.856a55.367 55.367 0 0 0 -15.363 48.157c11.229 67.551 48.172 135.518 104.027 191.371 55.653 55.649 123.335 92.615 190.593 104.091a55.362 55.362 0 0 0 48.36-15.329l58.191-58.192a14.062 14.062 0 0 0 0-19.887zm15.305 151.577a30.312 30.312 0 0 1 -26.522 8.375c-62.208-10.614-125.12-45.114-177.147-97.137-52.2-52.2-86.674-115.355-97.056-177.819a30.365 30.365 0 0 1 8.393-26.423l50.156-50.157 75.978 75.978-43.339 43.344a27.809 27.809 0 0 0 -3.342 35.228 414.442 414.442 0 0 0 109.063 109.058 27.808 27.808 0 0 0 35.227-3.341l43.34-43.339 75.741 75.741z"/><path d="m420.965 266.011v-81.505a12.476 12.476 0 0 0 -24.952 0v26.508h-40.943l27.192-74.209a12.476 12.476 0 1 0 -23.429-8.585l-29.189 79.661-.164.478a21.143 21.143 0 0 0 20.131 27.607h46.4v30.045a12.476 12.476 0 0 0 24.952 0z"/><path d="m255.488 219.514c-17.064 14.126-31.815 26.339-36.09 39.611a14.62 14.62 0 0 0 13.827 19.362h72.822a12.476 12.476 0 0 0 0-24.952h-51.864c5.365-4.99 11.781-10.3 17.216-14.8 21.587-17.871 43.909-36.35 43.909-57.372v-15.453a45.874 45.874 0 0 0 -91.747 0v3.66a12.476 12.476 0 0 0 24.951 0v-3.66a20.922 20.922 0 1 1 41.844 0v15.452c0 9.286-20.983 26.657-34.868 38.152z"/><path d="m448.544 63.286a216.06 216.06 0 0 0 -318.056 13.614 12.475 12.475 0 1 0 19.078 16.08 190.823 190.823 0 0 1 146.191-68.029c105.385 0 191.122 85.737 191.122 191.122a190.354 190.354 0 0 1 -71.49 149.042 12.475 12.475 0 1 0 15.629 19.448 216.061 216.061 0 0 0 17.526-321.277z"/></svg>