<svg enable-background="new 0 0 32 32" height="512" viewBox="0 0 32 32" width="512" xmlns="http://www.w3.org/2000/svg"><g id="Layer_2" fill="rgb(0,0,0)">
    <path d="m23.939 4.524c-.077-.251-.339-.391-.593-.316-1.079.328-2.119.752-3.092 1.26-.233.122-.323.408-.201.641.084.163.25.255.421.255.074 0 .149-.018.219-.054.921-.481 1.906-.882 2.929-1.193.252-.076.394-.342.317-.593z"/>
    <path d="m18.721 6.374-.356.244c-.215.15-.267.447-.117.662.092.132.24.203.39.203.094 0 .189-.028.272-.086l.339-.232c.218-.146.277-.441.131-.659-.146-.22-.442-.278-.659-.132z"/>
    <path d="m30.398 2.888c0-.71-.578-1.288-1.288-1.288-2.57 0-9.575.589-14.815 6.369-1.452.036-2.803.394-4.01 1.088-2.716 1.54-3.738 4.16-4.106 5.587-.081.323.003.662.224.908.189.21.456.328.736.328.046 0 .093-.003.14-.01l2.655-.392c-.13.369-.257.744-.376 1.132-.111.361-.029.755.193 1.056l-.959.959c-.475.476-.475 1.249 0 1.724l2.856 2.855c.23.231.536.358.862.358s.632-.127.862-.357l.967-.966c.207.152.449.252.705.252.115 0 .231-.017.344-.051.389-.119.764-.246 1.133-.376l-.39 2.641c-.054.329.061.66.306.885.186.171.425.262.673.262.083 0 .166-.01.249-.031 1.424-.367 4.044-1.389 5.583-4.103.693-1.207 1.051-2.559 1.088-4.016 5.779-5.24 6.368-12.244 6.368-14.814zm-.95 0c0 .703-.048 1.756-.243 3.015-.719-.242-1.379-.639-1.924-1.185s-.943-1.206-1.185-1.924c1.259-.196 2.312-.243 3.015-.243.189-.001.337.147.337.337zm-22.348 11.99c.33-1.279 1.243-3.627 3.657-4.996.823-.473 1.722-.771 2.681-.9-1.183 1.501-2.248 3.306-3.116 5.474zm5.602 7.655c-.102.102-.279.102-.38 0l-2.856-2.856c-.105-.105-.105-.275 0-.38l.942-.942 3.237 3.237zm9.415-1.287c-1.368 2.411-3.716 3.325-5.047 3.604l.469-3.172c2.17-.868 3.977-1.934 5.479-3.119-.13.962-.428 1.863-.901 2.687zm-7.007.285c-.083.027-.183.002-.245-.061l-4.337-4.337c-.063-.062-.087-.161-.061-.245 3.009-9.838 9.933-12.964 14.69-13.926.281.909.768 1.744 1.452 2.428.683.683 1.518 1.17 2.428 1.452-.963 4.756-4.089 11.68-13.927 14.689z"/>
    <path d="m21.21 7.164c-.999.999-.999 2.625 0 3.624.484.484 1.128.75 1.812.75.685 0 1.328-.267 1.812-.75s.75-1.127.75-1.812c0-.684-.267-1.328-.75-1.812-.967-.967-2.655-.968-3.624 0zm2.952 2.952c-.609.609-1.671.609-2.28 0-.628-.628-.628-1.651 0-2.28.305-.305.709-.473 1.14-.473s.835.168 1.14.473.473.709.473 1.14c0 .43-.168.835-.473 1.14z"/>
    <path d="m7.195 21.489c-3.75.029-5.223 6.083-5.585 7.938-.053.269.031.544.224.737.155.155.363.239.578.239.053 0 .106-.005.159-.015 2.377-.465 7.91-1.939 7.938-5.585.006-.856-.35-1.707-.978-2.335-.629-.629-1.528-.983-2.336-.979zm-4.614 7.928c.318-1.532 1.655-6.955 4.621-6.978.616.021 1.208.25 1.657.7s.705 1.053.7 1.657c-.023 2.964-5.445 4.302-6.978 4.621z"/>
</g>
</svg>
