<svg id="Layer_1" enable-background="new 0 0 512 512" height="512" viewBox="0 0 512 512" width="512" xmlns="http://www.w3.org/2000/svg"><path d="m437.526 76.206c-48.024-48.025-111.877-74.474-179.794-74.474s-131.768 26.449-179.794 74.474c-48.024 48.024-74.472 111.877-74.472 179.794 0 48.608 13.733 95.744 39.744 136.524-.979 35.076-7.733 57.853-40.151 89.113-2.924 2.819-3.852 7.127-2.349 10.9 1.504 3.773 5.141 6.262 9.202 6.298 49.969.447 73.413-6.379 113.604-26.858 40.254 25.07 86.528 38.291 134.217 38.291 67.917 0 131.77-26.448 179.794-74.473 48.025-48.025 74.473-111.878 74.473-179.795s-26.448-131.77-74.474-179.794zm-179.794 414.062c-45.747 0-90.078-13.202-128.199-38.178-1.658-1.086-3.566-1.635-5.481-1.635-1.576 0-3.158.373-4.606 1.125-34.086 17.696-53.239 25.018-86.037 26.815 23.835-28.878 29.237-54.643 29.868-88.529.038-2.01-.532-3.985-1.634-5.667-24.976-38.114-38.177-82.445-38.177-128.199 0-129.175 105.092-234.267 234.267-234.267 129.175-.001 234.267 105.091 234.267 234.267 0 129.175-105.092 234.268-234.268 234.268zm187.567-241.825c0 5.523-4.478 10-10 10h-30.629c-5.522 0-10-4.477-10-10s4.478-10 10-10h30.629c5.522 0 10 4.477 10 10zm-69.565-41.422c-2.762-4.783-1.123-10.899 3.66-13.66l27.979-16.154c4.783-2.761 10.899-1.123 13.66 3.66 2.762 4.783 1.123 10.899-3.66 13.66l-27.979 16.154c-1.574.909-3.294 1.342-4.99 1.342-3.457 0-6.817-1.794-8.67-5.002zm4.644 41.422c0-17.59-13.145-32.159-30.125-34.424v-53.196c0-17.292-14.067-31.36-31.359-31.36-14.764 0-27.17 10.259-30.484 24.02-27.155 21.095-67.989 36.393-113.393 42.58-1.833-2.109-4.529-3.448-7.543-3.448h-41.48c-30.782 0-55.826 25.044-55.826 55.827 0 30.579 24.717 55.484 55.22 55.811 0 0 8.059 61.635 8.063 61.664 1.415 10.818 12.307 18.475 22.95 16.168l14.397-3.119c9.748-2.111 16.146-11.164 14.882-21.055l-7.225-56.6c44.023 6.478 83.486 21.529 109.955 42.089 3.314 13.762 15.72 24.021 30.485 24.021 17.292 0 31.359-14.068 31.359-31.36v-53.196c16.979-2.263 30.124-16.831 30.124-34.422zm-202.904-32.526c42.73-5.752 80.909-18.761 110.06-37.381v139.814c-29.151-18.62-67.33-31.629-110.06-37.381zm-87.307 32.525c0-19.754 16.071-35.826 35.826-35.826h31.48v71.653h-31.48c-19.755.001-35.826-16.072-35.826-35.827zm62.984 113.885-7.591-58.057h13.109l7.064 55.332zm177.102-26.264c0 6.264-5.096 11.36-11.359 11.36s-11.36-5.096-11.36-11.36v-175.239c0-6.264 5.097-11.36 11.36-11.36s11.359 5.096 11.359 11.36zm20-73.63v-27.978c5.872 1.942 10.125 7.474 10.125 13.989s-4.253 12.046-10.125 13.989zm70.782 53.588c-1.852 3.208-5.214 5.002-8.67 5.002-1.696 0-3.415-.432-4.99-1.342l-27.98-16.154c-4.783-2.761-6.422-8.877-3.66-13.66 2.76-4.783 8.876-6.423 13.66-3.66l27.98 16.154c4.783 2.761 6.422 8.877 3.66 13.66z"/></svg>