<svg id="Layer_1" enable-background="new 0 0 123 123" height="512" viewBox="0 0 123 123" width="512" xmlns="http://www.w3.org/2000/svg"><g fill="#010101"><path d="m118.2 7h-97.2c-2.6 0-4.8 2.1-4.8 4.8v11.4h-11.4c-2.7 0-4.8 2.1-4.8 4.8v83.2c0 2.6 2.1 4.8 4.8 4.8h97.2c2.6 0 4.8-2.1 4.8-4.8v-11.4h11.4c2.6 0 4.8-2.1 4.8-4.8v-83.2c0-2.7-2.1-4.8-4.8-4.8zm-97.2 4h97.2c.4 0 .8.3.8.8v13.8h-98.8v-13.8c0-.5.4-.8.8-.8zm-16.2 16.2h11.4v14.6h-12.2v-13.8c0-.4.3-.8.8-.8zm98 84c0 .4-.3.8-.8.8h-97.2c-.4 0-.8-.3-.8-.8v-65.4h12.2v49.2c0 2.6 2.1 4.8 4.8 4.8h81.8zm15.4-15.4h-97.2c-.4 0-.8-.3-.8-.8v-65.4h98.8v65.4c0 .4-.3.8-.8.8z"/><path d="m37.1 19.9h-7.4c-1.1 0-2-.9-2-2s.9-2 2-2h7.4c1.1 0 2 .9 2 2s-.9 2-2 2z"/><path d="m54 19.9h-7.4c-1.1 0-2-.9-2-2s.9-2 2-2h7.4c1.1 0 2 .9 2 2s-.9 2-2 2z"/></g><path d="m38.9 62.9 19 9.8v-3.8l-14.6-7.3 14.6-7.3v-3.8l-19 9.7z"/><path d="m62.1 73.9h3.6l11.2-29h-3.7z"/><path d="m81 50.5v3.8l14.7 7.3-14.7 7.3v3.8l19-9.8v-2.7z"/></svg>