<svg clip-rule="evenodd" fill-rule="evenodd" stroke-linejoin="round" stroke-miterlimit="2" viewBox="0 0 96 96" xmlns="http://www.w3.org/2000/svg"><g><path d="m73.44 76.374h20.56c.828 0 1.5-.672 1.5-1.5v-61.25c0-3.054-1.213-5.982-3.372-8.141-2.159-2.16-5.088-3.373-8.141-3.373-17.693 0-54.281 0-71.974 0-3.053 0-5.982 1.213-8.141 3.373-2.159 2.159-3.372 5.087-3.372 8.141v61.25c0 .828.672 1.5 1.5 1.5h21.151c.827 0 1.5-.672 1.5-1.5s-.673-1.5-1.5-1.5h-19.651v-59.75c0-2.258.897-4.424 2.493-6.02 1.597-1.597 3.762-2.494 6.02-2.494h71.974c2.258 0 4.423.897 6.02 2.494 1.596 1.596 2.493 3.762 2.493 6.02v59.75h-19.06c-.828 0-1.5.672-1.5 1.5s.672 1.5 1.5 1.5z"/><path d="m2 24.385h92c.828 0 1.5-.672 1.5-1.5s-.672-1.5-1.5-1.5h-92c-.828 0-1.5.672-1.5 1.5s.672 1.5 1.5 1.5z"/><path d="m66.509 8.501c-2.619 0-4.746 2.127-4.746 4.747 0 2.619 2.127 4.746 4.746 4.746 2.62 0 4.747-2.127 4.747-4.746 0-2.62-2.127-4.747-4.747-4.747zm0 3c.964 0 1.747.783 1.747 1.747s-.783 1.746-1.747 1.746c-.963 0-1.746-.782-1.746-1.746s.783-1.747 1.746-1.747z"/><path d="m79.85 8.501c-2.619 0-4.746 2.127-4.746 4.747 0 2.619 2.127 4.746 4.746 4.746 2.62 0 4.747-2.127 4.747-4.746 0-2.62-2.127-4.747-4.747-4.747zm0 3c.964 0 1.747.783 1.747 1.747s-.783 1.746-1.747 1.746c-.963 0-1.746-.782-1.746-1.746s.783-1.747 1.746-1.747z"/><path d="m28.476 89.133h39.122c.828 0 1.5-.672 1.5-1.5s-.672-1.5-1.5-1.5h-39.122c-.828 0-1.5.672-1.5 1.5s.672 1.5 1.5 1.5zm45.873-6.256v-40.186c0-.828-.672-1.5-1.5-1.5-.827 0-1.5.672-1.5 1.5v40.186c0 .828.673 1.5 1.5 1.5.828 0 1.5-.672 1.5-1.5zm-52.698-40.186v40.186c0 .828.672 1.5 1.5 1.5.827 0 1.5-.672 1.5-1.5v-40.186c0-.828-.673-1.5-1.5-1.5-.828 0-1.5.672-1.5 1.5zm46.442-6.257h-39.617c-.828 0-1.5.673-1.5 1.5 0 .828.672 1.5 1.5 1.5h39.617c.828 0 1.5-.672 1.5-1.5 0-.827-.672-1.5-1.5-1.5z"/><path d="m67.032 41.63-40.186 40.186c-.585.586-.585 1.536 0 2.122.586.585 1.536.585 2.122 0l40.186-40.187c.585-.585.585-1.536 0-2.121-.586-.585-1.536-.585-2.122 0z"/><path d="m26.846 43.751 40.186 40.187c.586.585 1.536.585 2.122 0 .585-.586.585-1.536 0-2.122l-40.186-40.186c-.586-.585-1.536-.585-2.122 0-.585.585-.585 1.536 0 2.121z"/><path d="m29.407 33.178c0-.828-.672-1.5-1.5-1.5h-9.513c-.828 0-1.5.672-1.5 1.5v9.513c0 .828.672 1.5 1.5 1.5h9.513c.828 0 1.5-.672 1.5-1.5zm-3 1.5v6.513h-6.513v-6.513z"/><path d="m29.407 82.877c0-.828-.672-1.5-1.5-1.5h-9.513c-.828 0-1.5.672-1.5 1.5v9.513c0 .828.672 1.5 1.5 1.5h9.513c.828 0 1.5-.672 1.5-1.5zm-3 1.5v6.513h-6.513v-6.513z"/><path d="m79.106 33.178c0-.828-.672-1.5-1.5-1.5h-9.513c-.828 0-1.5.672-1.5 1.5v9.513c0 .828.672 1.5 1.5 1.5h9.513c.828 0 1.5-.672 1.5-1.5zm-3 1.5v6.513h-6.513v-6.513z"/><path d="m79.106 82.877c0-.828-.672-1.5-1.5-1.5h-9.513c-.828 0-1.5.672-1.5 1.5v9.513c0 .828.672 1.5 1.5 1.5h9.513c.828 0 1.5-.672 1.5-1.5zm-3 1.5v6.513h-6.513v-6.513z"/></g></svg>