<svg xmlns="http://www.w3.org/2000/svg" width="256" height="256" viewBox="0 0 100 100"><rect width="100" height="100" rx="50" fill="#ff7f00"></rect><path fill="#ffffff" d="M79.25 36.91L69.44 36.91Q66.83 31.41 61.88 28.40Q56.93 25.38 50.36 25.38L50.36 25.38Q43.79 25.38 38.53 28.40Q33.26 31.41 30.25 37.04Q27.23 42.66 27.23 50.05L27.23 50.05Q27.23 57.42 30.25 63.00Q33.26 68.58 38.53 71.60Q43.79 74.61 50.36 74.61L50.36 74.61Q59.54 74.61 65.48 69.13Q71.42 63.63 72.41 54.27L72.41 54.27L47.39 54.27L47.39 47.62L81.14 47.62L81.14 53.91Q80.42 61.66 76.28 68.09Q72.14 74.53 65.39 78.26Q58.64 82.00 50.36 82.00L50.36 82.00Q41.63 82.00 34.43 77.90Q27.23 73.80 23.05 66.52Q18.86 59.22 18.86 50.05L18.86 50.05Q18.86 40.87 23.05 33.53Q27.23 26.20 34.43 22.10Q41.63 18.01 50.36 18.01L50.36 18.01Q60.35 18.01 68.05 22.95Q75.74 27.91 79.25 36.91L79.25 36.91Z"></path></svg>