<svg version="1.2" xmlns="http://www.w3.org/2000/svg" viewBox="0 0 312 208" width="312" height="208">
	<title>4446240-ai</title>
	<style>
		.s0 { fill: #ffc81a } 
		.s1 { fill: #fff }
	</style>
	<g id="OBJECTS">
		<g id="&lt;Group&gt;">
			<g id="&lt;Group&gt;">
				<path id="&lt;Path&gt;" class="s0" d="m94.6 207.7h-94.1v-207.3h94.1z"/>
				<g id="&lt;Group&gt;">
					<g id="&lt;Group&gt;">
						<g id="&lt;Group&gt;">
							<path id="&lt;Path&gt;" class="s1" d="m238.1 120.4h-133.9v-4.2h133.9z"/>
							<path id="&lt;Path&gt;" class="s1" d="m237.5 133.6v4.3h-133.3v-4.3z"/>
							<path id="&lt;Path&gt;" class="s1" d="m104.2 155.3h133.9v-4.2h-133.9z"/>
							<path id="&lt;Path&gt;" class="s1" d="m104.2 172.8h133.9v-4.2h-133.9z"/>
							<path id="&lt;Path&gt;" class="s1" d="m238.7 186.1v4.2h-134.5v-4.2z"/>
							<path id="&lt;Path&gt;" class="s1" d="m104.2 207.8h134.9v-4.2h-134.9z"/>
						</g>
						<g id="&lt;Group&gt;">
							<path id="&lt;Path&gt;" class="s1" d="m311.5 207.8h-4.2v-203.2h-198.9v112.6h-4.2v-116.8h207.3z"/>
							<path id="&lt;Path&gt;" class="s1" d="m294 207.8h-4.2v-185.7h-163.9v95.4h-4.2v-99.7l172.3 0.1z"/>
							<path id="&lt;Path&gt;" class="s1" d="m276.5 207.8h-4.2v-168.2h-128.9v77.5h-4.2v-81.8h137.3z"/>
							<path id="&lt;Path&gt;" class="s1" d="m259 207.8h-4.2v-150.8h-94v59.9h-4.2v-64.1h102.4z"/>
							<path id="&lt;Path&gt;" class="s1" d="m241.5 207.8h-4.2v-133.3h-59v42.8h-4.2v-47h67.5z"/>
						</g>
					</g>
				</g>
			</g>
		</g>
	</g>
</svg>